<?xml version="1.0" encoding="utf-8"?>
<!-- Generator: Adobe Illustrator 18.1.0, SVG Export Plug-In . SVG Version: 6.00 Build 0)  -->
<!DOCTYPE svg PUBLIC "-//W3C//DTD SVG 1.1//EN" "http://www.w3.org/Graphics/SVG/1.1/DTD/svg11.dtd">
<svg version="1.1" id="Layer_1" xmlns="http://www.w3.org/2000/svg" xmlns:xlink="http://www.w3.org/1999/xlink" x="0px" y="0px"
	 viewBox="67 190.6 945 218.8" enable-background="new 67 190.6 945 218.8" xml:space="preserve" preserveAspectRatio="none">
<g id="graphsvg_1_">
	<path id="path-1_3_" fill="#404146" d="M67,411.8c18.8-9.4,50.9-25.1,69.6-31.9c40.1-14.6,94.8-12.2,136.5-7.8
		c78.9,8.2,124.6-4.9,187.9-42.8c62.9-37.7,114-53,194-70s152.2-22.1,200-32c63-13,101-34,157-34v218.6H67z"/>
</g>
<g id="graphsvg">
	<linearGradient id="path-1_1_" gradientUnits="userSpaceOnUse" x1="65.8879" y1="302.4327" x2="1012.094" y2="302.4327">
		<stop  offset="0" style="stop-color:#894645"/>
		<stop  offset="1" style="stop-color:#62DA27"/>
	</linearGradient>
	<path id="path-1_2_" fill="none" stroke="url(#path-1_1_)" stroke-width="5" stroke-miterlimit="10" d="M67,411.8
		c18.8-9.4,50.9-25.1,69.6-31.9c40.1-14.6,94.8-12.2,136.5-7.8c78.9,8.2,124.6-4.9,187.9-42.8c62.9-37.7,114-53,194-70
		s152.2-22.1,200-32c63-13,101-34,157-34"/>
</g>
</svg>
